<svg width="50" height="51" viewBox="0 0 50 51" fill="none" xmlns="http://www.w3.org/2000/svg">
<path d="M38.6816 50.4577H42.4455C44.3501 50.4577 45.9146 48.9839 46.1413 47.1246L49.8825 9.75811H38.5456V0.575195H34.0788V9.75811H22.8099L23.4901 15.0638C27.3674 16.1295 30.9952 18.0567 33.1719 20.1881C36.4369 23.4078 38.6816 26.7408 38.6816 32.1826V50.4577ZM0 48.1903V45.9229H34.0788V48.1903C34.0788 49.4147 33.0585 50.4577 31.7434 50.4577H2.26739C1.02032 50.4577 0 49.4147 0 48.1903ZM34.0788 32.3186C34.0788 14.1795 0 14.1795 0 32.3186H34.0788ZM0 36.8534H34.0108V41.3882H0V36.8534Z" fill="white"/>
</svg>
