<svg width="49" height="49" viewBox="0 0 49 49" fill="none" xmlns="http://www.w3.org/2000/svg">
<path d="M32.6192 0.447754C33.8608 0.447623 35.0871 0.721944 36.2103 1.25109C37.3335 1.78023 38.3258 2.55111 39.1163 3.50855C39.9068 4.466 40.4758 5.58634 40.7828 6.7894C41.0897 7.99246 41.1269 9.2485 40.8917 10.4676L40.8556 10.6265C42.9495 11.325 44.7802 12.6463 46.1027 14.4137C47.4251 16.1811 48.1763 18.3102 48.2556 20.5161C48.3349 22.7221 47.7386 24.8997 46.5464 26.7574C45.3543 28.6152 43.6233 30.0646 41.5849 30.9117L38.971 46.5733C38.8776 47.1353 38.5878 47.6459 38.1532 48.0144C37.7187 48.3828 37.1675 48.5852 36.5978 48.5854H11.7925C11.2227 48.5852 10.6716 48.3828 10.237 48.0144C9.80247 47.6459 9.51271 47.1353 9.41927 46.5733L6.94259 31.7228C5.27685 31.6283 3.69523 30.9599 2.46657 29.8312C1.23791 28.7024 0.438046 27.1831 0.20293 25.5313C-0.0321866 23.8795 0.311957 22.1973 1.17686 20.7706C2.04177 19.3438 3.37406 18.2606 4.94728 17.7051L4.94006 17.2959C4.93958 14.8589 5.55587 12.4613 6.73153 10.3266C7.90719 8.1918 9.60398 6.3893 11.6639 5.08691C13.7237 3.78453 16.0797 3.02463 18.5124 2.87798C20.9451 2.73134 23.3753 3.20272 25.5767 4.24822C26.3434 3.08049 27.3885 2.12176 28.6179 1.45834C29.8472 0.79492 31.2223 0.447637 32.6192 0.447754ZM16.9745 31.7372H11.8237L13.8311 43.7717H16.9745V31.7372ZM26.602 31.7372H21.7882V43.7717H26.602V31.7372ZM36.5641 31.7372H31.4158V43.7717H34.5568L36.5641 31.7372ZM19.3814 7.6684C14.2258 7.6684 10.0162 11.7216 9.76586 16.7351L9.75383 17.2093L9.76105 17.6185C9.77806 18.5636 9.51644 19.4928 9.0088 20.2902C8.50117 21.0876 7.77 21.7179 6.90649 22.1025L6.54545 22.2445C6.01102 22.4348 5.56087 22.8076 5.27431 23.2972C4.98774 23.7868 4.88314 24.3618 4.97892 24.921C5.0747 25.4801 5.36473 25.9876 5.79791 26.3539C6.23109 26.7202 6.77964 26.9219 7.34694 26.9235H37.433C38.3226 26.9235 39.2012 26.7262 40.0055 26.3458C40.8097 25.9655 41.5196 25.4115 42.084 24.7239C42.6485 24.0362 43.0534 23.2319 43.2697 22.369C43.4859 21.506 43.5081 20.6059 43.3347 19.7333C43.1613 18.8607 42.7965 18.0374 42.2667 17.3228C41.7369 16.6081 41.0552 16.0198 40.2707 15.6002C39.4862 15.1807 38.6184 14.9403 37.7298 14.8964C36.8413 14.8525 35.954 15.0062 35.132 15.3464L34.7108 15.5413C33.6002 16.1136 32.3106 16.2317 31.1145 15.8706C29.9184 15.5095 28.9096 14.6975 28.3013 13.6062L28.1328 13.2764C27.3636 11.6023 26.1301 10.184 24.5789 9.18994C23.0277 8.19588 21.2238 7.66781 19.3814 7.6684ZM32.6192 5.26152C31.9953 5.26139 31.382 5.42296 30.8391 5.73047C30.2962 6.03798 29.8423 6.48094 29.5216 7.01614C30.7646 8.23955 31.7758 9.67802 32.5061 11.2619C33.5962 10.7043 34.773 10.3357 35.9865 10.1716C36.1975 9.62469 36.2722 9.03466 36.2041 8.45246C36.136 7.87025 35.9272 7.31338 35.5956 6.82996C35.2641 6.34654 34.8199 5.95112 34.3013 5.67785C33.7827 5.40458 33.2054 5.26169 32.6192 5.26152Z" fill="#C1BBBB"/>
</svg>
