<svg width="45" height="40" viewBox="0 0 45 40" fill="none" xmlns="http://www.w3.org/2000/svg">
<path d="M0.540039 14.568C0.540039 11.5308 3.00937 9.06152 6.04655 9.06152H6.18421C6.8209 5.92109 9.59997 3.55501 12.9297 3.55501C14.2203 3.55501 15.4248 3.90777 16.4487 4.51865C17.593 2.31605 19.9075 0.801758 22.5661 0.801758C25.2247 0.801758 27.5392 2.31605 28.6835 4.51865C29.7073 3.90777 30.9119 3.55501 32.2025 3.55501C35.5322 3.55501 38.3113 5.92109 38.948 9.06152H39.0856C42.1228 9.06152 44.5921 11.5308 44.5921 14.568C44.5921 15.5747 44.3254 16.5125 43.8522 17.3213H1.27998C0.806761 16.5125 0.540039 15.5747 0.540039 14.568ZM0.540039 22.432C0.540039 21.1328 1.59832 20.0745 2.89751 20.0745H42.226C43.5252 20.0745 44.5835 21.1328 44.5835 22.432C44.5835 28.4978 40.7634 33.6773 35.4031 35.6907L35.2569 36.9382C35.0848 38.3149 33.9147 39.3473 32.5208 39.3473H12.6027C11.2175 39.3473 10.0388 38.3149 9.86669 36.9382L9.71182 35.6993C4.36018 33.6773 0.540039 28.4978 0.540039 22.432Z" fill="#C2BCBC"/>
</svg>
