<svg xmlns="http://www.w3.org/2000/svg" width="40" height="40" viewBox="0 0 40 40">
  <path fill="#F9F5F0" d="M20 0C8.954 0 0 8.954 0 20s8.954 20 20 20 20-8.954 20-20S31.046 0 20 0zm0 36c-8.837 0-16-7.163-16-16S11.163 4 20 4s16 7.163 16 16-7.163 16-16 16z"/>
  <path fill="#F9F5F0" d="M28 14c-2.5-3.5-6.5-5-10-5s-7.5 1.5-10 5c-1.5 2-2 4.5-1 7 1 2.5 3 4.5 5.5 5.5 1.5.5 3 .5 4.5 0 .5-.5 1-1 1-1.5v-1c-1.5.5-3 .5-4.5 0-2-.5-3.5-2-4-4-.5-2 0-4 1.5-5.5 2-2 5-2.5 7.5-1.5 2.5 1 4 3.5 4 6 0 1-.5 2-1 3-.5.5-1 1-1.5 1.5-.5.5-1 1-1 1.5 0 .5.5 1 1 1.5 1.5.5 3 .5 4.5 0 2.5-1 4.5-3 5.5-5.5 1-2.5.5-5-1-7z"/>
</svg>